{"glyphs":{":":{"x_min":0,"x_max":384,"ha":384,"o":"m 299 417 q 299 389 279 370 q 259 350 232 350 q 205 350 185 370 q 165 389 165 417 q 165 444 185 464 q 204 483 232 483 q 260 483 279 464 q 299 444 299 417 z m 218 56 q 218 29 198 10 q 179 -10 151 -10 q 124 -10 104 10 q 84 29 84 56 q 84 83 104 103 q 124 123 151 123 q 179 123 198 103 q 218 83 218 56 z"},"$":{"x_min":0,"x_max":610,"ha":610,"o":"m 577 514 q 577 487 562 465 q 548 442 521 442 q 497 442 482 453 q 468 464 468 483 q 468 497 478 517 q 488 537 494 552 q 493 555 487 563 q 482 571 474 577 q 465 584 450 589 q 436 595 411 597 l 357 361 q 370 356 385 350 q 401 344 414 338 q 471 314 500 279 q 530 244 530 199 q 530 112 457 53 q 383 -6 271 -9 l 241 -146 l 196 -146 l 229 -10 q 148 -6 100 31 q 51 67 51 122 q 51 157 70 181 q 88 206 116 206 q 141 206 154 194 q 167 181 167 163 q 167 146 152 120 q 137 95 130 86 q 139 59 166 45 q 192 30 236 27 l 295 282 q 275 290 259 296 q 242 302 224 311 q 180 330 155 363 q 130 395 130 439 q 130 524 205 579 q 279 633 376 633 l 401 744 l 446 744 l 419 633 q 491 626 534 593 q 577 560 577 514 z m 368 596 q 296 596 258 562 q 220 529 220 476 q 220 443 236 422 q 253 401 286 386 q 291 384 300 380 q 309 376 316 373 z m 437 162 q 437 196 419 220 q 400 245 360 262 q 355 264 348 266 q 341 269 336 271 l 279 26 q 349 26 393 62 q 437 97 437 162 z"},"?":{"x_min":0,"x_max":479,"ha":479,"o":"m 491 546 q 491 439 417 371 q 344 302 225 288 l 200 184 l 155 184 l 194 369 q 233 373 271 384 q 308 395 336 417 q 366 441 384 475 q 401 509 401 563 q 401 615 374 644 q 347 673 298 673 q 279 673 260 666 q 242 660 231 653 q 231 640 231 619 q 231 599 229 586 q 224 564 206 550 q 187 536 157 536 q 137 536 127 549 q 117 562 117 579 q 117 602 129 623 q 142 645 168 666 q 192 684 229 697 q 266 709 309 709 q 392 709 441 665 q 491 621 491 546 z m 226 56 q 226 29 206 10 q 186 -10 159 -10 q 131 -10 112 10 q 92 29 92 56 q 92 83 112 103 q 131 123 159 123 q 186 123 206 103 q 226 83 226 56 z"},"<":{"x_min":0,"x_max":643,"ha":643,"o":"m 558 11 l 106 246 l 106 301 l 558 536 l 558 469 l 183 273 l 558 78 z"},"'":{"x_min":0,"x_max":215,"ha":215,"o":"m 253 704 q 253 685 226 622 q 199 559 167 472 l 137 472 q 140 555 140 613 q 140 670 144 692 q 147 714 165 730 q 183 747 208 747 q 231 747 242 734 q 253 722 253 704 z"},"=":{"x_min":0,"x_max":643,"ha":643,"o":"m 580 333 l 87 333 l 87 395 l 580 395 z m 580 152 l 87 152 l 87 213 l 580 213 z"},"a":{"x_min":0,"x_max":573,"ha":573,"o":"m 340 64 l 336 64 q 326 56 311 42 q 296 29 276 17 q 257 4 234 -5 q 212 -14 186 -14 q 115 -14 74 37 q 34 88 34 176 q 34 236 57 293 q 79 351 119 396 q 156 439 208 466 q 260 493 314 493 q 349 493 381 483 q 412 474 430 462 l 520 485 l 525 478 l 451 163 q 447 148 443 126 q 439 104 439 94 q 439 66 451 57 q 462 47 490 47 q 500 47 517 50 q 534 53 543 56 l 536 25 q 492 7 470 0 q 449 -8 418 -8 q 383 -8 362 12 q 342 33 340 64 z m 410 373 q 410 389 406 404 q 403 418 392 431 q 382 443 365 451 q 348 458 322 458 q 287 458 253 435 q 219 411 192 372 q 167 334 151 282 q 135 229 135 175 q 135 145 138 122 q 142 99 151 80 q 161 62 178 51 q 196 41 223 41 q 250 41 280 56 q 310 72 348 110 z"},"L":{"x_min":0,"x_max":604,"ha":604,"o":"m 591 206 l 529 0 l -12 0 l -5 32 q 7 33 30 36 q 52 38 62 42 q 80 49 89 62 q 98 75 102 92 l 217 593 q 218 597 219 602 q 220 606 220 611 q 220 621 216 629 q 211 637 201 643 q 191 648 172 654 q 153 659 140 661 l 147 693 l 440 693 l 433 661 q 421 660 400 656 q 379 653 363 648 q 344 642 335 627 q 326 613 322 598 l 214 127 q 210 110 208 97 q 206 84 206 76 q 206 49 227 42 q 249 36 307 36 q 339 36 380 41 q 421 47 438 62 q 462 83 500 130 q 538 176 557 206 z"},"3":{"x_min":0,"x_max":552,"ha":552,"o":"m 487 492 q 505 472 512 449 q 520 425 520 403 q 520 378 510 348 q 500 318 480 295 q 459 269 425 247 q 390 226 340 212 l 337 205 q 360 203 386 194 q 413 186 433 171 q 455 155 468 131 q 482 106 482 72 q 482 16 456 -31 q 431 -77 389 -109 q 346 -142 291 -160 q 236 -178 173 -178 q 95 -178 43 -143 q -8 -108 -8 -57 q -8 -25 10 -1 q 28 23 59 23 q 85 23 98 10 q 111 -2 111 -19 q 111 -40 100 -62 q 88 -84 82 -99 q 84 -102 91 -109 q 99 -117 112 -124 q 125 -130 145 -135 q 165 -141 190 -141 q 223 -141 257 -126 q 292 -111 317 -84 q 345 -55 361 -15 q 378 24 378 80 q 378 125 348 149 q 319 172 262 172 l 196 172 l 209 227 l 252 227 q 328 227 372 280 q 416 333 416 411 q 416 456 393 479 q 371 502 326 502 q 292 502 264 489 q 236 476 222 460 q 222 455 222 443 q 223 432 223 418 q 223 372 203 350 q 184 328 145 328 q 121 328 111 340 q 102 353 102 371 q 102 399 118 427 q 135 455 169 482 q 199 506 247 523 q 295 540 350 540 q 399 540 433 526 q 467 513 487 492 z"},";":{"x_min":0,"x_max":384,"ha":384,"o":"m 299 417 q 299 389 279 370 q 259 350 232 350 q 205 350 185 370 q 165 389 165 417 q 165 444 185 464 q 204 483 232 483 q 260 483 279 464 q 299 444 299 417 z m 226 48 q 226 6 207 -30 q 188 -65 158 -94 q 129 -122 99 -142 q 69 -162 45 -173 l 30 -140 q 52 -128 75 -113 q 98 -97 114 -82 q 133 -62 147 -44 q 160 -25 168 1 l 145 1 q 115 1 100 16 q 85 31 85 55 q 85 80 105 102 q 125 123 158 123 q 193 123 209 102 q 226 82 226 48 z"},"J":{"x_min":0,"x_max":518,"ha":518,"o":"m 590 693 l 583 661 q 569 660 548 657 q 527 654 512 649 q 493 643 485 630 q 477 617 472 600 l 379 187 q 372 154 352 117 q 332 81 300 52 q 266 21 224 2 q 182 -17 126 -17 q 58 -17 17 18 q -24 52 -24 112 q -24 161 0 197 q 24 233 63 233 q 92 233 104 219 q 117 205 117 186 q 117 168 108 150 q 100 132 87 115 q 75 100 61 84 q 47 67 39 56 q 46 42 66 30 q 86 18 126 18 q 162 18 188 34 q 214 51 231 78 q 248 105 260 143 q 273 180 283 226 l 366 595 q 367 597 367 602 q 368 607 368 611 q 368 621 364 629 q 359 638 349 644 q 336 651 312 656 q 287 660 275 661 l 283 693 z"},"V":{"x_min":0,"x_max":667,"ha":667,"o":"m 788 693 l 781 661 q 768 660 749 655 q 730 650 716 643 q 695 631 682 615 q 669 600 655 578 q 604 500 500 335 q 396 169 285 -9 l 245 -9 q 221 156 194 348 q 167 541 159 595 q 156 611 149 622 q 142 633 128 643 q 117 651 102 656 q 87 660 74 661 l 81 693 l 362 693 l 354 661 q 303 658 281 651 q 260 643 260 628 q 260 624 261 618 q 261 612 261 610 q 268 562 283 452 q 299 342 328 142 q 396 248 466 362 q 537 476 568 528 q 597 577 604 597 q 610 617 610 622 q 610 632 601 639 q 592 646 578 650 q 563 655 546 657 q 529 660 517 661 l 524 693 z"},"\"":{"x_min":0,"x_max":412,"ha":412,"o":"m 443 704 q 443 685 416 622 q 389 559 357 472 l 327 472 q 330 555 330 613 q 330 670 333 692 q 337 714 355 730 q 373 747 398 747 q 421 747 432 734 q 443 722 443 704 z m 260 704 q 260 685 233 622 q 206 559 173 472 l 144 472 q 146 555 146 613 q 146 670 150 692 q 154 714 171 730 q 189 747 215 747 q 238 747 249 734 q 260 722 260 704 z"},"7":{"x_min":0,"x_max":497,"ha":497,"o":"m 576 524 l 569 492 l 71 -178 l 7 -178 l 477 444 l 286 444 q 244 444 219 443 q 195 442 173 434 q 157 428 139 401 q 122 375 105 333 l 73 333 l 117 524 z"},"S":{"x_min":0,"x_max":561,"ha":561,"o":"m 241 -14 q 181 -14 135 1 q 90 16 62 35 l 35 0 l -4 0 l 43 237 l 83 237 q 85 194 94 157 q 104 120 124 90 q 145 60 177 43 q 210 26 258 26 q 331 26 375 66 q 419 106 419 176 q 419 214 400 243 q 382 272 345 289 q 310 304 275 316 q 241 328 208 344 q 164 365 137 404 q 110 443 110 493 q 110 540 131 579 q 151 619 186 647 q 219 675 266 692 q 313 708 359 708 q 403 708 442 698 q 480 688 520 660 l 546 693 l 585 693 l 536 463 l 497 463 q 495 500 489 541 q 483 581 468 607 q 452 636 423 652 q 395 668 347 668 q 289 668 250 629 q 211 589 211 534 q 211 498 225 473 q 240 448 270 432 q 302 416 338 404 q 373 392 401 378 q 457 352 489 315 q 520 278 520 224 q 520 172 498 127 q 475 83 438 52 q 398 20 349 3 q 300 -14 241 -14 z"},"}":{"x_min":0,"x_max":430,"ha":430,"o":"m 409 320 l 395 259 q 310 252 269 223 q 228 194 214 133 q 208 109 204 74 q 200 39 195 13 q 186 -40 164 -73 q 142 -107 108 -127 q 73 -147 30 -155 q -13 -163 -66 -163 l -57 -125 q -37 -124 -10 -119 q 17 -115 34 -106 q 55 -94 71 -73 q 86 -52 94 -17 l 119 93 q 131 147 152 180 q 172 213 200 234 q 227 254 261 265 q 296 275 332 283 l 335 298 q 307 304 282 312 q 257 321 241 334 q 222 349 212 369 q 203 389 203 424 q 203 450 210 482 q 217 514 223 537 q 231 572 237 596 q 242 620 242 642 q 242 665 233 679 q 224 692 208 700 q 193 707 174 710 q 155 712 136 714 l 145 750 q 243 750 286 722 q 329 693 329 632 q 329 608 321 574 q 312 541 305 516 q 297 490 290 457 q 282 424 282 407 q 282 365 311 345 q 340 325 409 320 z"},"Z":{"x_min":0,"x_max":602,"ha":602,"o":"m 677 693 l 673 676 l 101 37 l 258 37 q 300 37 348 43 q 396 50 414 64 q 452 95 490 138 q 528 182 551 216 l 585 216 l 512 0 l -44 0 l -40 17 l 533 656 l 380 656 q 352 656 334 654 q 316 652 298 649 q 264 643 212 595 q 160 547 127 497 l 93 497 l 159 693 z"},"x":{"x_min":0,"x_max":501,"ha":501,"o":"m 522 439 q 521 411 501 397 q 481 384 457 384 q 442 384 424 389 q 405 394 395 397 q 373 378 344 340 q 314 302 289 256 q 300 209 310 177 q 319 144 330 110 q 339 81 359 63 q 378 45 411 45 q 422 45 443 48 q 463 51 475 55 l 466 23 q 419 3 395 -2 q 372 -8 344 -8 q 310 -8 288 7 q 266 23 252 72 q 242 107 236 132 q 230 156 224 180 q 202 146 187 122 q 172 99 138 57 q 108 21 83 6 q 59 -9 33 -9 q 10 -9 -5 4 q -20 18 -20 42 q -20 64 -2 81 q 15 97 46 97 q 62 97 76 92 q 91 86 107 81 q 126 99 156 136 q 187 173 213 220 q 204 255 193 296 q 182 338 172 369 q 160 409 143 420 q 126 431 101 431 q 86 431 71 427 q 55 423 41 419 l 50 452 q 88 467 118 477 q 148 487 159 487 q 192 487 215 471 q 237 455 250 408 q 265 354 268 342 q 271 330 278 294 q 302 331 316 355 q 331 380 364 421 q 395 460 421 474 q 447 489 471 489 q 493 489 508 475 q 522 461 522 439 z"},")":{"x_min":0,"x_max":375,"ha":375,"o":"m 348 447 q 348 204 235 33 q 122 -138 -44 -160 l -37 -121 q 26 -109 82 -55 q 137 0 179 92 q 215 173 236 279 q 256 384 256 480 q 256 576 226 638 q 195 699 127 712 l 135 748 q 236 735 292 657 q 348 579 348 447 z"},"&":{"x_min":0,"x_max":710,"ha":710,"o":"m 752 439 l 744 407 q 723 405 690 397 q 657 389 632 367 q 620 355 603 332 q 585 308 562 275 q 543 250 514 212 q 485 174 461 149 q 479 120 499 96 q 519 71 535 60 q 552 48 586 41 q 620 33 643 32 l 635 0 l 447 0 l 392 88 q 370 69 348 51 q 326 33 297 17 q 268 0 239 -9 q 211 -17 180 -17 q 106 -17 57 25 q 9 67 9 139 q 9 214 60 272 q 112 330 219 385 q 196 427 184 459 q 171 492 171 527 q 171 568 188 602 q 204 636 231 660 q 257 683 294 696 q 332 709 370 709 q 427 709 464 678 q 501 647 501 594 q 501 533 460 488 q 419 442 317 394 q 353 327 378 283 q 403 239 442 176 q 468 205 488 233 q 509 261 530 296 q 544 319 552 338 q 559 357 559 370 q 559 382 539 391 q 520 399 483 407 l 491 439 z m 436 592 q 436 628 417 649 q 398 669 363 669 q 316 669 288 636 q 260 603 260 556 q 260 524 271 492 q 282 460 302 421 q 373 456 405 497 q 436 538 436 592 z m 373 115 q 332 183 298 241 q 264 300 234 357 q 178 327 147 279 q 117 231 117 172 q 117 115 146 82 q 176 48 229 48 q 269 48 305 66 q 342 83 373 115 z"},"_":{"x_min":0,"x_max":643,"ha":643,"o":"m 570 -89 l 559 -136 l -89 -136 l -78 -89 z"},"v":{"x_min":0,"x_max":538,"ha":538,"o":"m 507 402 q 507 328 485 252 q 462 175 423 118 q 384 59 329 22 q 274 -15 209 -15 q 145 -15 107 21 q 69 56 69 116 q 69 127 72 141 q 74 155 75 160 l 118 316 q 123 335 126 354 q 130 372 130 386 q 130 413 120 422 q 111 432 83 432 q 73 432 55 427 q 38 423 29 420 l 36 452 q 74 469 104 478 q 133 487 151 487 q 190 487 209 469 q 228 451 228 417 q 228 407 226 393 q 224 379 220 363 l 173 181 q 168 162 166 145 q 163 128 163 123 q 163 98 171 82 q 179 66 191 57 q 203 49 217 45 q 231 42 246 42 q 279 42 314 63 q 350 84 376 118 q 405 154 422 199 q 440 245 440 299 q 440 329 432 344 q 424 360 414 372 q 404 384 396 398 q 388 411 388 436 q 388 463 407 478 q 425 493 446 493 q 475 493 491 469 q 507 446 507 402 z"},"O":{"x_min":0,"x_max":730,"ha":730,"o":"m 721 426 q 721 333 687 252 q 653 170 598 112 q 541 52 469 18 q 396 -17 318 -17 q 197 -17 123 62 q 49 141 49 264 q 49 358 83 440 q 117 521 172 580 q 227 640 301 675 q 374 709 452 709 q 571 709 646 633 q 721 556 721 426 z m 535 166 q 569 226 588 302 q 606 378 606 455 q 606 552 565 610 q 523 668 443 668 q 380 668 327 631 q 273 594 233 522 q 198 459 181 384 q 164 308 164 241 q 164 139 206 82 q 248 24 327 24 q 394 24 447 64 q 500 104 535 166 z"},"(":{"x_min":0,"x_max":375,"ha":375,"o":"m 444 748 l 437 708 q 374 697 318 643 q 263 588 221 496 q 185 415 164 309 q 144 204 144 108 q 144 12 174 -50 q 205 -111 273 -124 l 265 -160 q 164 -147 108 -69 q 52 9 52 141 q 52 384 165 555 q 278 726 444 748 z"},"C":{"x_min":0,"x_max":642,"ha":642,"o":"m 308 -16 q 255 -16 208 2 q 160 21 125 57 q 89 93 69 144 q 49 195 49 260 q 49 352 80 432 q 111 512 166 575 q 219 636 293 672 q 367 709 447 709 q 508 709 554 695 q 601 681 630 660 l 658 693 l 697 693 l 644 446 l 604 446 l 604 465 q 604 505 598 542 q 591 578 573 607 q 556 636 525 653 q 495 669 447 669 q 387 669 336 637 q 284 605 247 552 q 209 500 187 425 q 165 349 165 271 q 165 167 216 102 q 267 37 353 37 q 424 37 485 80 q 545 122 583 193 l 618 175 q 557 70 481 27 q 405 -16 308 -16 z"},"W":{"x_min":0,"x_max":976,"ha":976,"o":"m 1090 693 l 1083 661 q 1070 660 1053 655 q 1035 650 1020 642 q 1000 630 986 616 q 973 601 959 576 q 909 482 823 320 q 736 158 646 -9 l 602 -9 l 545 525 l 242 -9 l 199 -9 q 188 213 180 365 q 172 517 168 595 q 167 610 163 621 q 158 632 144 643 q 133 651 117 656 q 102 660 89 661 l 96 693 l 375 693 l 368 661 q 310 657 290 648 q 270 639 270 626 q 270 617 271 598 q 271 579 272 559 q 273 525 279 423 q 285 320 293 165 l 584 683 l 629 683 l 687 154 q 748 271 793 361 q 839 452 875 524 q 896 568 905 591 q 913 614 913 624 q 913 639 891 649 q 869 658 827 661 l 834 693 z"},"A":{"x_min":0,"x_max":671,"ha":671,"o":"m 427 281 l 384 552 l 218 281 z m 353 0 l 360 32 q 375 34 395 36 q 416 39 427 42 q 442 47 449 53 q 457 58 457 69 q 457 73 451 117 q 445 161 435 241 l 191 241 q 175 215 157 182 q 139 148 129 131 q 121 115 113 96 q 104 77 104 70 q 104 54 130 44 q 156 35 195 32 l 188 0 l -78 0 l -71 32 q -58 33 -38 38 q -18 42 -4 50 q 13 60 29 74 q 45 89 63 118 q 147 251 248 416 q 349 580 426 703 l 465 703 l 557 103 q 560 84 567 72 q 574 60 587 49 q 597 42 614 37 q 630 33 643 32 l 636 0 z"},"f":{"x_min":0,"x_max":329,"ha":329,"o":"m 242 433 l 156 29 q 133 -79 59 -148 q -15 -217 -93 -217 q -136 -217 -156 -200 q -176 -184 -176 -159 q -176 -138 -164 -122 q -151 -106 -127 -106 q -112 -106 -100 -113 q -89 -120 -80 -130 q -73 -138 -65 -152 q -56 -167 -50 -177 q -12 -174 14 -126 q 41 -78 61 11 l 150 433 l 55 433 l 65 477 l 160 477 l 167 510 q 178 567 204 612 q 229 658 261 689 q 293 721 333 739 q 374 756 411 756 q 454 756 474 740 q 494 724 494 699 q 494 678 482 662 q 470 646 445 646 q 430 646 418 652 q 407 659 398 669 q 389 682 383 692 q 377 703 368 716 q 334 715 309 672 q 283 629 262 529 l 251 477 l 374 477 l 363 433 z"},"Q":{"x_min":0,"x_max":730,"ha":730,"o":"m 721 426 q 721 333 687 252 q 653 170 598 112 q 561 73 515 44 q 469 16 420 0 q 418 -6 418 -17 q 417 -27 417 -35 q 417 -84 444 -112 q 471 -139 511 -139 q 552 -139 574 -135 q 597 -132 610 -128 l 602 -165 q 572 -174 530 -181 q 488 -188 450 -188 q 381 -188 343 -152 q 306 -115 306 -44 q 306 -39 306 -30 q 307 -21 308 -16 q 192 -12 120 65 q 49 142 49 264 q 49 358 83 440 q 117 521 172 580 q 227 640 301 675 q 374 709 452 709 q 571 709 646 633 q 721 556 721 426 z m 606 455 q 606 552 565 610 q 523 668 443 668 q 380 668 327 631 q 273 594 233 522 q 198 459 181 384 q 164 308 164 241 q 164 139 206 82 q 248 24 327 24 q 394 24 447 64 q 500 104 535 166 q 569 226 588 302 q 606 378 606 455 z"},"w":{"x_min":0,"x_max":822,"ha":822,"o":"m 792 402 q 792 326 770 250 q 748 175 709 118 q 667 55 613 20 q 560 -15 497 -15 q 451 -15 412 11 q 373 36 360 81 q 342 63 327 49 q 312 34 289 19 q 265 3 245 -5 q 225 -14 194 -14 q 157 -14 133 -2 q 109 9 94 28 q 81 45 75 68 q 69 90 69 114 q 69 124 71 138 q 73 152 76 162 l 117 316 q 123 338 126 356 q 128 375 128 386 q 128 414 119 423 q 110 432 83 432 q 72 432 55 428 q 39 424 29 421 l 37 453 q 75 470 104 479 q 133 487 150 487 q 189 487 208 469 q 226 451 226 417 q 226 408 224 393 q 222 378 218 363 l 173 183 q 168 165 166 146 q 163 126 163 117 q 163 81 177 62 q 192 43 227 43 q 257 43 291 60 q 325 77 353 109 l 439 479 l 524 485 l 530 478 l 461 181 q 458 166 454 145 q 450 124 450 118 q 450 91 459 76 q 467 60 480 53 q 493 45 507 44 q 521 42 533 42 q 566 42 601 63 q 636 84 662 118 q 691 155 708 201 q 724 247 724 299 q 724 329 716 344 q 708 360 698 372 q 688 384 680 398 q 672 411 672 436 q 672 463 691 478 q 709 493 730 493 q 759 493 775 469 q 792 446 792 402 z"},"-":{"x_min":0,"x_max":374,"ha":374,"o":"m 347 303 l 330 229 l 39 229 l 56 303 z"},"E":{"x_min":0,"x_max":653,"ha":653,"o":"m 678 693 l 639 526 l 603 526 q 600 578 581 613 q 562 648 530 653 q 516 655 495 656 q 474 657 447 657 l 336 657 l 272 378 l 350 378 q 386 378 406 385 q 426 392 442 409 q 457 423 470 449 q 484 475 490 492 l 526 492 l 464 221 l 428 221 q 428 227 428 234 q 429 242 429 250 q 429 269 427 285 q 424 302 420 310 q 410 329 391 334 q 372 340 341 340 l 263 340 l 214 129 q 211 117 209 104 q 208 90 208 82 q 208 55 227 46 q 246 38 312 38 q 394 38 423 43 q 453 49 467 61 q 495 83 532 132 q 569 182 582 204 l 617 204 l 557 0 l -18 0 l -11 32 q 4 33 29 36 q 54 40 63 43 q 80 49 89 62 q 98 75 102 92 l 218 595 q 219 599 219 604 q 220 608 220 613 q 220 623 216 630 q 212 638 201 644 q 189 650 168 655 q 146 660 134 661 l 142 693 z"},"s":{"x_min":0,"x_max":431,"ha":431,"o":"m 177 -14 q 104 -14 56 11 q 8 37 8 79 q 8 98 22 115 q 37 132 57 132 q 77 132 89 123 q 101 114 107 102 q 115 89 120 72 q 126 54 130 43 q 137 35 150 28 q 163 21 188 21 q 240 21 267 47 q 294 73 294 118 q 294 151 269 171 q 244 191 193 208 q 175 213 151 225 q 126 237 112 251 q 94 267 83 288 q 73 310 73 339 q 73 401 129 447 q 185 493 266 493 q 285 493 307 491 q 329 489 355 480 q 378 472 395 457 q 411 441 411 417 q 411 397 397 381 q 384 364 362 364 q 344 364 332 372 q 320 380 312 393 q 305 406 300 421 q 295 437 289 451 q 280 455 272 457 q 265 458 253 458 q 205 458 180 432 q 156 407 156 372 q 156 337 178 320 q 200 303 251 284 q 318 260 348 229 q 378 199 378 153 q 378 79 321 32 q 264 -14 177 -14 z"},">":{"x_min":0,"x_max":643,"ha":643,"o":"m 561 246 l 109 11 l 109 78 l 485 273 l 109 469 l 109 536 l 561 301 z"},"l":{"x_min":0,"x_max":285,"ha":285,"o":"m 293 749 l 157 161 q 152 142 148 124 q 145 105 145 93 q 145 65 157 55 q 169 45 197 45 q 207 45 226 47 q 246 50 255 53 l 248 22 q 204 4 180 -3 q 157 -10 127 -10 q 88 -10 68 10 q 47 30 47 60 q 47 71 50 83 q 52 96 56 114 l 174 628 q 178 644 179 649 q 180 655 180 664 q 180 682 174 691 q 168 701 158 706 q 147 710 132 711 q 116 713 100 715 l 107 745 l 288 756 z"},"8":{"x_min":0,"x_max":596,"ha":596,"o":"m 589 562 q 589 502 547 450 q 506 398 425 364 q 489 333 518 294 q 547 255 547 209 q 547 116 462 50 q 376 -17 254 -17 q 156 -17 101 29 q 46 75 46 145 q 46 217 92 269 q 138 321 237 357 q 188 388 165 425 q 142 462 142 502 q 142 587 222 649 q 302 711 406 711 q 490 711 539 668 q 589 626 589 562 z m 495 568 q 495 614 469 645 q 442 675 392 675 q 328 675 283 633 q 238 592 238 529 q 238 479 276 447 q 314 414 395 381 q 442 408 469 460 q 495 512 495 568 z m 449 180 q 449 207 438 228 q 427 249 404 268 q 381 286 346 304 q 312 321 268 340 q 207 310 175 260 q 143 210 143 148 q 143 92 177 56 q 212 20 272 20 q 352 20 400 67 q 449 114 449 180 z"},"\\":{"x_min":0,"x_max":469,"ha":469,"o":"m 342 -207 l 278 -207 l 161 744 l 225 744 z"},"e":{"x_min":0,"x_max":472,"ha":472,"o":"m 452 391 q 452 339 420 302 q 387 265 325 243 q 280 227 233 216 q 187 206 131 199 q 131 122 159 81 q 188 41 243 41 q 292 41 329 65 q 367 89 403 138 l 431 117 q 392 58 333 22 q 274 -14 211 -14 q 125 -14 79 35 q 34 83 34 172 q 34 233 53 289 q 72 345 109 392 q 146 437 198 465 q 250 493 314 493 q 384 493 418 464 q 452 436 452 391 z m 362 403 q 362 422 357 433 q 352 444 343 450 q 334 456 325 457 q 315 458 305 458 q 246 458 197 394 q 147 330 134 233 q 168 238 211 247 q 254 256 282 271 q 323 292 343 325 q 362 358 362 403 z"},"b":{"x_min":0,"x_max":554,"ha":554,"o":"m 520 306 q 520 241 496 182 q 473 123 434 80 q 395 36 345 10 q 295 -15 239 -15 q 197 -15 165 -8 q 133 0 111 12 q 88 24 73 40 q 58 56 45 76 l 171 628 q 174 640 176 648 q 177 656 177 664 q 177 682 171 691 q 166 701 155 706 q 145 710 129 711 q 113 713 97 715 l 104 745 l 285 756 l 290 749 l 216 424 l 218 424 q 262 463 295 478 q 329 493 360 493 q 435 493 477 442 q 520 392 520 306 z m 419 304 q 419 330 414 356 q 410 382 399 399 q 388 418 368 429 q 349 439 320 439 q 303 439 288 434 q 272 428 256 418 q 242 409 229 397 q 215 384 204 375 l 139 85 q 141 75 148 63 q 155 52 167 43 q 180 32 197 26 q 214 20 235 20 q 273 20 307 43 q 341 65 366 104 q 393 146 406 198 q 419 250 419 304 z"},"%":{"x_min":0,"x_max":817,"ha":817,"o":"m 432 572 q 432 479 374 413 q 316 348 227 348 q 163 348 127 385 q 91 421 91 484 q 91 528 105 568 q 120 608 146 639 q 172 670 210 690 q 249 709 296 709 q 361 709 396 672 q 432 635 432 572 z m 352 584 q 352 624 337 650 q 322 677 290 677 q 238 677 205 617 q 172 558 172 472 q 172 434 187 407 q 201 381 234 381 q 283 381 317 440 q 352 500 352 584 z m 761 209 q 761 115 704 50 q 646 -15 557 -15 q 492 -15 456 21 q 420 58 420 121 q 420 165 435 205 q 450 245 475 275 q 501 307 540 327 q 578 346 626 346 q 690 346 726 309 q 761 272 761 209 z m 681 221 q 681 261 666 287 q 651 313 619 313 q 568 313 535 254 q 501 195 501 108 q 501 70 516 44 q 531 18 564 18 q 612 18 647 77 q 681 137 681 221 z m 818 695 l 106 0 l 36 0 l 747 695 z"},"m":{"x_min":0,"x_max":879,"ha":879,"o":"m 851 55 l 844 24 q 799 6 772 -1 q 745 -8 726 -8 q 687 -8 667 12 q 648 32 648 62 q 648 73 650 86 q 652 99 656 116 l 704 298 q 709 319 713 336 q 716 354 716 364 q 716 396 702 416 q 688 435 657 435 q 624 435 593 419 q 561 404 521 362 l 437 0 l 346 0 l 422 326 q 425 337 427 349 q 429 361 429 367 q 429 398 413 417 q 397 435 367 435 q 339 435 305 421 q 271 407 227 358 l 145 0 l 54 0 l 126 316 q 130 333 134 353 q 138 373 138 386 q 138 415 128 424 q 119 433 92 433 q 82 433 65 429 q 48 425 39 422 l 46 454 q 84 471 113 479 q 143 487 164 487 q 203 487 219 466 q 235 445 236 408 l 239 408 q 297 454 334 473 q 371 493 422 493 q 466 493 493 468 q 520 442 523 404 l 525 404 q 578 448 618 470 q 659 493 713 493 q 760 493 785 466 q 811 438 811 395 q 811 386 808 363 q 805 341 799 319 l 758 162 q 754 146 750 126 q 746 106 746 95 q 746 67 758 57 q 770 47 797 47 q 807 47 824 49 q 842 52 851 55 z"},"#":{"x_min":0,"x_max":643,"ha":643,"o":"m 576 364 l 463 364 l 417 241 l 544 241 l 531 181 l 395 181 l 327 0 l 272 0 l 340 181 l 234 181 l 167 0 l 112 0 l 180 181 l 76 181 l 89 241 l 203 241 l 249 364 l 121 364 l 135 424 l 271 424 l 338 601 l 392 601 l 325 424 l 431 424 l 498 601 l 552 601 l 485 424 l 590 424 z m 411 365 l 302 365 l 255 240 l 363 240 z"},",":{"x_min":0,"x_max":270,"ha":270,"o":"m 202 48 q 202 6 183 -30 q 164 -65 134 -94 q 105 -122 75 -142 q 45 -162 21 -173 l 6 -140 q 28 -128 51 -113 q 74 -97 90 -82 q 109 -62 123 -44 q 136 -25 144 1 l 121 1 q 91 1 76 16 q 62 31 62 55 q 62 80 81 102 q 101 123 134 123 q 169 123 186 102 q 202 82 202 48 z"},"n":{"x_min":0,"x_max":590,"ha":590,"o":"m 561 57 l 554 25 q 510 8 485 0 q 461 -8 436 -8 q 397 -8 377 12 q 358 32 358 62 q 358 73 360 86 q 362 99 366 116 l 414 298 q 419 319 423 336 q 426 354 426 364 q 426 396 410 416 q 395 435 364 435 q 334 435 297 415 q 260 396 227 358 l 145 0 l 54 0 l 126 316 q 129 328 134 350 q 138 373 138 386 q 138 414 129 423 q 120 432 92 432 q 81 432 64 428 q 48 425 39 422 l 46 454 q 84 471 113 479 q 143 487 164 487 q 202 487 219 466 q 235 445 236 408 l 239 408 q 293 451 332 472 q 371 493 421 493 q 468 493 494 466 q 521 438 521 395 q 521 386 518 363 q 515 341 509 319 l 468 162 q 464 146 460 126 q 456 106 456 95 q 456 67 468 57 q 480 47 508 47 q 517 47 534 50 q 552 53 561 57 z"},"h":{"x_min":0,"x_max":562,"ha":562,"o":"m 534 57 l 527 25 q 483 8 458 0 q 434 -8 409 -8 q 370 -8 351 12 q 331 32 331 62 q 331 73 333 86 q 335 99 339 116 l 387 298 q 393 319 396 336 q 399 354 399 364 q 399 396 383 416 q 368 435 337 435 q 306 435 269 415 q 233 395 200 358 l 118 0 l 27 0 l 172 628 q 174 640 176 647 q 178 655 178 664 q 178 682 172 691 q 166 701 155 706 q 146 710 130 711 q 114 713 98 715 l 104 745 l 286 756 l 291 749 l 212 411 l 214 411 q 265 451 304 472 q 344 493 394 493 q 441 493 467 466 q 494 438 494 395 q 494 386 491 363 q 488 341 482 319 l 441 162 q 438 146 433 126 q 429 106 429 95 q 429 67 441 57 q 453 47 481 47 q 490 47 508 50 q 525 53 534 57 z"},"z":{"x_min":0,"x_max":444,"ha":444,"o":"m 456 478 l 450 449 l 101 39 q 119 38 139 38 q 160 38 184 38 q 203 38 224 38 q 245 39 277 41 q 297 42 309 54 q 322 67 330 83 q 337 95 351 122 q 365 149 374 170 l 403 170 l 370 0 l -13 0 l -5 34 l 338 439 l 274 439 q 231 439 207 438 q 183 437 161 428 q 145 422 128 395 q 111 367 96 330 l 66 330 l 95 478 z"},"B":{"x_min":0,"x_max":654,"ha":654,"o":"m 577 666 q 604 651 619 627 q 634 603 634 570 q 634 526 616 492 q 599 458 570 436 q 542 412 505 397 q 469 381 432 374 l 432 370 q 460 366 490 356 q 521 346 545 330 q 571 312 587 285 q 604 258 604 221 q 604 166 578 124 q 552 82 513 55 q 471 27 423 13 q 375 0 324 0 l -14 0 l -6 32 q 5 33 29 36 q 52 40 62 44 q 80 51 89 63 q 98 75 102 92 l 217 595 q 218 600 219 604 q 220 609 220 614 q 220 624 216 632 q 211 639 201 645 q 187 652 171 656 q 155 660 142 661 l 149 693 l 455 693 q 490 693 520 687 q 550 681 577 666 z m 473 440 q 496 467 506 497 q 516 527 516 565 q 516 591 507 609 q 498 627 481 638 q 465 648 446 653 q 426 657 405 657 q 389 657 369 656 q 349 655 335 655 l 273 385 l 334 385 q 382 385 417 400 q 452 416 473 440 z m 441 105 q 462 134 473 168 q 484 203 484 236 q 484 288 449 318 q 414 348 350 348 q 319 348 297 347 q 275 346 264 346 l 209 107 q 208 100 207 94 q 206 88 206 83 q 206 58 232 46 q 258 35 298 35 q 347 35 384 55 q 420 76 441 105 z"},"K":{"x_min":0,"x_max":694,"ha":694,"o":"m 780 693 l 772 661 q 770 661 754 659 q 738 657 722 654 q 703 649 684 642 q 666 634 650 620 q 586 563 512 497 q 438 432 374 379 q 417 312 458 245 q 498 179 536 114 q 549 91 566 73 q 583 55 599 46 q 609 40 629 36 q 648 33 661 32 l 652 0 l 476 0 q 437 84 390 167 q 343 249 288 329 l 261 329 l 207 95 q 206 91 205 87 q 205 83 205 79 q 205 67 208 60 q 211 52 224 46 q 230 42 252 38 q 273 33 285 32 l 277 0 l -10 0 l -3 32 q 9 33 31 35 q 52 37 62 41 q 80 48 89 60 q 98 73 101 90 l 218 595 q 219 599 219 604 q 220 608 220 612 q 220 623 215 631 q 211 639 201 644 q 192 648 175 654 q 157 659 142 661 l 149 693 l 437 693 l 430 661 q 416 660 395 656 q 373 652 362 649 q 344 643 335 629 q 327 615 323 600 l 266 353 l 276 353 q 346 402 414 461 q 481 520 524 563 q 551 590 565 609 q 579 627 579 639 q 579 647 562 653 q 545 659 513 661 l 520 693 z"},"R":{"x_min":0,"x_max":702,"ha":702,"o":"m 669 32 l 661 0 l 486 0 q 444 99 407 169 q 371 239 330 315 l 257 315 l 206 92 q 205 88 204 83 q 203 77 203 75 q 203 63 207 55 q 211 47 222 42 q 229 39 251 36 q 273 33 288 32 l 280 0 l -13 0 l -5 32 q 7 33 30 36 q 52 38 62 42 q 80 49 89 62 q 98 75 102 92 l 218 598 q 219 603 220 608 q 221 613 221 618 q 221 628 217 636 q 213 644 202 648 q 192 652 172 656 q 153 660 140 661 l 147 693 l 459 693 q 501 693 536 685 q 570 676 594 662 q 620 646 635 621 q 649 595 649 561 q 649 515 632 477 q 615 439 586 412 q 555 384 516 366 q 477 348 430 337 q 468 263 492 220 q 516 177 548 114 q 565 83 578 69 q 591 55 606 46 q 618 40 638 36 q 657 33 669 32 z m 529 550 q 529 600 499 628 q 468 656 413 656 l 335 656 l 267 355 l 336 355 q 416 355 473 411 q 529 467 529 550 z"},"T":{"x_min":0,"x_max":619,"ha":619,"o":"m 710 693 l 667 505 l 633 505 q 633 522 629 548 q 625 575 617 596 q 608 618 595 634 q 582 650 563 653 q 548 655 526 656 q 503 657 483 657 l 453 657 l 324 98 q 323 94 322 90 q 322 85 322 81 q 322 69 326 61 q 331 54 343 48 q 353 44 378 38 q 404 33 420 32 l 412 0 l 85 0 l 93 32 q 107 33 135 36 q 163 39 176 43 q 195 51 205 63 q 215 76 219 94 l 349 657 l 323 657 q 308 657 286 656 q 264 656 241 653 q 225 651 204 634 q 182 617 161 593 q 140 570 124 547 q 107 523 98 505 l 63 505 l 107 693 z"},"P":{"x_min":0,"x_max":610,"ha":610,"o":"m 641 553 q 641 494 615 448 q 588 401 547 371 q 504 338 451 322 q 398 306 340 306 l 255 306 l 206 92 q 205 87 204 83 q 204 78 204 74 q 204 63 208 55 q 211 47 223 42 q 230 39 253 36 q 275 33 292 32 l 285 0 l -12 0 l -5 32 q 7 33 30 36 q 52 38 62 42 q 80 49 89 62 q 98 75 102 92 l 218 597 q 219 601 220 606 q 221 612 221 617 q 221 627 217 635 q 213 644 202 648 q 187 654 169 657 q 151 660 137 661 l 144 693 l 452 693 q 536 693 588 656 q 641 618 641 553 z m 484 421 q 504 450 513 482 q 521 515 521 543 q 521 565 515 585 q 509 605 494 622 q 479 637 457 646 q 434 655 399 655 l 335 655 l 265 346 l 320 346 q 376 346 417 365 q 458 383 484 421 z"},"|":{"x_min":0,"x_max":375,"ha":375,"o":"m 232 -207 l 170 -207 l 170 744 l 232 744 z"},"t":{"x_min":0,"x_max":347,"ha":347,"o":"m 148 -10 q 102 -10 80 9 q 59 27 59 62 q 59 74 60 84 q 62 94 64 106 l 140 433 l 53 433 l 63 477 l 152 477 l 186 620 l 274 620 l 241 477 l 377 477 l 367 433 l 231 433 l 169 164 q 165 145 162 128 q 159 110 159 98 q 159 71 172 59 q 186 46 221 46 q 233 46 256 50 q 279 53 292 58 l 284 22 q 250 9 219 -1 q 189 -10 148 -10 z"},"M":{"x_min":0,"x_max":927,"ha":927,"o":"m 980 693 l 973 661 q 959 660 937 656 q 915 652 904 649 q 885 643 877 629 q 869 615 865 600 l 748 95 q 747 91 747 86 q 746 82 746 79 q 746 68 750 60 q 755 52 765 46 q 772 42 794 37 q 816 33 829 32 l 821 0 l 516 0 l 524 32 q 542 33 568 36 q 594 39 605 44 q 622 53 633 65 q 643 78 646 95 l 766 611 l 761 611 l 382 11 l 359 11 l 272 624 l 268 624 l 169 198 q 164 172 160 147 q 156 123 156 108 q 156 92 159 80 q 163 69 169 62 q 178 51 206 43 q 234 35 250 32 l 243 0 l -37 0 l -29 32 q -6 35 17 39 q 40 43 59 56 q 79 69 92 99 q 106 128 120 192 l 203 552 q 206 563 207 572 q 208 581 208 590 q 208 605 204 616 q 200 626 194 634 q 181 648 159 654 q 138 660 120 661 l 127 693 l 360 693 l 436 172 l 706 608 q 721 633 733 659 q 746 686 748 693 z"},"g":{"x_min":0,"x_max":573,"ha":573,"o":"m 346 66 l 343 67 q 333 59 315 45 q 297 31 278 20 q 255 7 232 -1 q 209 -10 182 -10 q 111 -10 73 40 q 34 90 34 178 q 34 239 56 296 q 79 353 117 397 q 154 440 206 467 q 258 493 314 493 q 350 493 381 484 q 412 475 431 462 l 521 485 l 526 478 l 444 93 q 426 6 397 -54 q 368 -115 330 -150 q 291 -186 243 -201 q 196 -217 137 -217 q 96 -217 71 -210 q 45 -204 30 -194 q 16 -184 10 -171 q 5 -158 5 -146 q 5 -124 19 -109 q 32 -94 55 -94 q 73 -94 85 -105 q 98 -115 106 -127 q 114 -140 122 -158 q 130 -175 134 -184 l 148 -184 q 175 -184 206 -172 q 237 -160 262 -132 q 288 -104 311 -56 q 333 -9 346 66 z m 412 378 q 412 392 407 406 q 403 420 392 433 q 381 444 365 451 q 348 458 322 458 q 285 458 251 435 q 218 413 191 373 q 166 336 150 283 q 135 230 135 177 q 135 148 139 124 q 143 100 153 82 q 164 64 180 54 q 197 44 224 44 q 258 44 292 64 q 326 83 356 114 z"},"j":{"x_min":0,"x_max":291,"ha":291,"o":"m 243 422 q 243 413 240 397 q 238 381 235 368 q 218 283 201 202 q 185 120 163 29 q 137 -79 66 -148 q -5 -217 -85 -217 q -128 -217 -148 -200 q -168 -184 -168 -159 q -168 -138 -156 -122 q -143 -106 -119 -106 q -104 -106 -93 -113 q -81 -120 -72 -130 q -65 -138 -57 -152 q -48 -167 -42 -177 q -7 -175 20 -128 q 48 -82 68 11 q 88 101 103 168 q 118 235 135 322 q 139 342 142 360 q 145 377 145 392 q 145 419 135 428 q 126 437 99 437 q 86 437 67 433 q 47 429 39 426 l 46 458 q 84 475 116 484 q 148 493 167 493 q 207 493 225 474 q 243 455 243 422 z m 308 677 q 308 649 290 629 q 272 608 245 608 q 220 608 202 628 q 184 647 184 673 q 184 700 202 720 q 220 740 245 740 q 273 740 291 721 q 308 702 308 677 z"},"i":{"x_min":0,"x_max":297,"ha":297,"o":"m 269 53 l 262 22 q 217 4 190 -3 q 163 -10 144 -10 q 105 -10 85 10 q 66 30 66 60 q 66 71 68 83 q 70 96 74 114 l 126 322 q 130 339 134 358 q 137 378 137 392 q 137 419 128 428 q 119 437 91 437 q 81 437 63 434 q 45 430 36 428 l 43 459 q 81 476 111 484 q 142 493 159 493 q 199 493 217 474 q 235 455 235 422 q 235 414 233 398 q 231 383 228 368 l 175 161 q 170 142 167 123 q 163 105 163 93 q 163 65 176 55 q 188 45 216 45 q 225 45 242 47 q 260 50 269 53 z m 304 677 q 304 649 286 629 q 268 608 241 608 q 216 608 198 628 q 180 647 180 673 q 180 700 198 720 q 216 740 241 740 q 269 740 286 721 q 304 702 304 677 z"},"y":{"x_min":0,"x_max":560,"ha":560,"o":"m 350 71 l 347 71 q 302 33 262 12 q 221 -10 169 -10 q 123 -10 95 17 q 68 44 68 88 q 68 100 70 116 q 72 132 79 164 l 117 316 q 123 338 125 355 q 128 371 128 386 q 128 414 119 423 q 110 432 83 432 q 72 432 55 428 q 39 424 29 421 l 37 453 q 75 470 104 479 q 133 487 150 487 q 189 487 208 470 q 227 452 227 417 q 227 408 225 393 q 223 378 219 363 l 175 185 q 170 164 167 146 q 163 128 163 119 q 163 86 179 67 q 195 48 226 48 q 261 48 295 66 q 329 83 359 114 l 440 479 l 524 485 l 530 478 l 446 96 q 428 12 399 -48 q 370 -107 332 -144 q 291 -183 244 -200 q 197 -217 137 -217 q 96 -217 71 -211 q 47 -205 33 -195 q 19 -185 14 -173 q 9 -161 9 -148 q 9 -127 21 -111 q 34 -95 58 -95 q 76 -95 89 -105 q 102 -116 109 -128 q 118 -141 125 -158 q 133 -174 137 -184 l 149 -184 q 177 -184 208 -170 q 239 -157 265 -128 q 292 -97 315 -47 q 337 2 350 71 z"},"@":{"x_min":0,"x_max":929,"ha":929,"o":"m 760 -58 q 711 -101 644 -127 q 577 -153 495 -153 q 421 -153 350 -129 q 278 -105 221 -57 q 165 -9 130 63 q 95 135 95 233 q 95 316 126 395 q 158 474 216 535 q 272 595 355 632 q 438 669 535 669 q 620 669 682 642 q 744 615 783 570 q 823 526 843 469 q 862 412 862 350 q 862 235 798 151 q 734 66 631 66 q 590 66 561 87 q 532 108 529 146 l 525 146 q 502 111 472 90 q 442 68 411 68 q 391 68 370 75 q 350 82 333 97 q 317 113 308 139 q 298 165 298 203 q 298 238 315 282 q 331 327 359 367 q 387 407 431 437 q 475 467 526 467 q 554 467 575 451 q 596 436 601 406 l 604 406 l 625 461 l 698 461 l 605 198 q 601 186 598 170 q 596 154 596 145 q 596 120 608 109 q 621 97 641 97 q 717 97 768 168 q 818 239 818 355 q 818 413 800 462 q 782 511 745 549 q 709 586 655 607 q 601 629 531 629 q 465 629 402 603 q 339 577 287 527 q 237 478 206 405 q 174 333 174 241 q 174 152 199 85 q 223 18 268 -27 q 311 -71 370 -93 q 429 -115 498 -115 q 576 -115 636 -94 q 697 -73 745 -33 z m 590 362 q 583 402 568 420 q 553 438 524 438 q 493 438 467 413 q 440 388 422 353 q 403 317 393 274 q 382 231 382 195 q 382 142 396 126 q 409 109 425 109 q 465 109 491 138 q 518 167 534 197 z"},".":{"x_min":0,"x_max":270,"ha":270,"o":"m 195 56 q 195 29 176 10 q 156 -10 128 -10 q 101 -10 81 10 q 62 29 62 56 q 62 83 81 103 q 101 123 128 123 q 156 123 176 103 q 195 83 195 56 z"},"p":{"x_min":0,"x_max":578,"ha":578,"o":"m 544 306 q 544 241 521 182 q 498 124 460 81 q 417 33 368 10 q 318 -13 266 -13 q 224 -13 197 -2 q 170 8 149 23 l 121 -105 q 118 -117 116 -128 q 115 -139 115 -145 q 115 -158 124 -166 q 134 -174 146 -177 q 158 -181 173 -183 q 188 -185 201 -186 l 194 -217 l -75 -217 l -68 -186 q -53 -185 -39 -184 q -25 -182 -13 -179 q 2 -174 11 -162 q 20 -150 24 -133 l 126 316 q 130 335 133 354 q 137 373 137 386 q 137 414 128 423 q 120 432 91 432 q 81 432 64 428 q 47 424 38 421 l 45 453 q 83 469 112 478 q 142 487 163 487 q 197 487 215 470 q 232 453 237 422 l 241 422 q 274 453 312 473 q 350 493 387 493 q 461 493 503 442 q 544 392 544 306 z m 392 104 q 417 145 430 196 q 443 247 443 304 q 443 330 439 356 q 434 382 424 399 q 413 418 395 428 q 376 439 346 439 q 323 439 296 425 q 269 412 230 374 l 167 97 q 171 69 198 45 q 224 21 262 21 q 300 21 334 43 q 368 66 392 104 z"},"X":{"x_min":0,"x_max":710,"ha":710,"o":"m 788 693 l 781 661 q 768 660 749 657 q 729 654 714 648 q 686 636 671 622 q 657 608 628 581 q 585 539 526 477 q 466 415 424 372 q 456 303 479 251 q 502 198 540 114 q 549 92 564 71 q 579 50 589 43 q 599 36 619 34 q 639 33 652 32 l 645 0 l 333 0 l 340 32 q 369 33 404 39 q 438 45 438 63 q 438 76 431 99 q 424 123 415 144 q 403 174 385 218 q 366 262 349 302 q 313 266 265 214 q 216 162 181 122 q 160 98 149 83 q 138 67 138 60 q 138 42 161 38 q 185 33 214 32 l 207 0 l -54 0 l -46 32 q -34 33 -14 36 q 6 39 20 45 q 48 58 68 75 q 87 92 106 112 q 153 160 213 222 q 273 283 330 343 q 310 388 279 456 q 249 524 224 580 q 209 613 201 625 q 193 638 174 648 q 165 653 144 656 q 124 660 111 661 l 119 693 l 427 693 l 420 661 q 378 659 351 652 q 323 645 323 631 q 323 615 329 596 q 336 577 347 550 q 363 512 373 488 q 383 463 407 410 q 459 464 500 507 q 540 550 568 585 q 583 605 590 615 q 597 625 597 633 q 597 647 574 654 q 551 660 522 661 l 530 693 z"},"*":{"x_min":0,"x_max":472,"ha":472,"o":"m 492 537 q 492 519 482 510 q 472 502 456 502 q 445 502 404 512 q 363 523 312 529 q 334 499 354 478 q 373 458 385 444 q 398 430 406 419 q 413 409 413 396 q 413 383 401 374 q 390 364 376 364 q 368 364 360 369 q 352 374 347 383 q 339 397 331 429 q 324 460 298 521 q 274 462 265 428 q 256 395 249 383 q 243 374 236 369 q 229 364 219 364 q 206 364 194 373 q 183 382 183 396 q 183 408 189 418 q 196 429 210 444 q 223 457 243 479 q 263 501 283 529 q 235 524 194 513 q 153 502 140 502 q 124 502 114 510 q 104 518 104 537 q 104 553 114 562 q 124 571 140 571 q 155 571 192 561 q 229 551 283 545 q 264 571 243 594 q 222 618 210 630 q 197 645 190 655 q 183 666 183 678 q 183 691 194 701 q 206 710 219 710 q 228 710 236 706 q 243 701 249 691 q 256 679 267 638 q 278 598 298 554 q 320 604 330 641 q 340 678 347 691 q 352 700 360 705 q 367 710 376 710 q 390 710 402 701 q 413 692 413 678 q 413 658 386 631 q 359 604 312 545 q 365 551 404 561 q 443 571 456 571 q 472 571 482 562 q 492 554 492 537 z"},"Y":{"x_min":0,"x_max":615,"ha":615,"o":"m 741 693 l 733 661 q 724 660 706 655 q 687 649 676 642 q 655 631 646 624 q 638 618 612 591 q 566 542 514 477 q 461 411 404 340 q 379 309 369 289 q 359 270 350 234 l 319 99 q 318 95 318 90 q 317 85 317 82 q 317 70 322 62 q 326 53 338 47 q 349 42 374 38 q 399 33 414 32 l 407 0 l 83 0 l 90 32 q 104 33 131 36 q 159 38 171 43 q 191 50 200 63 q 210 76 214 94 l 249 246 q 250 253 252 261 q 253 268 253 270 q 253 281 249 300 q 245 319 238 340 q 222 398 203 460 q 184 523 166 578 q 156 604 147 619 q 137 634 124 645 q 114 652 98 656 q 83 660 70 661 l 78 693 l 362 693 l 354 661 q 343 660 325 659 q 308 658 293 656 q 280 654 269 649 q 258 643 258 634 q 258 625 264 602 q 271 580 284 535 q 296 496 312 447 q 328 398 347 336 q 418 423 474 493 q 530 564 550 591 q 565 612 568 618 q 571 625 571 629 q 571 646 547 652 q 523 659 487 661 l 495 693 z"},"c":{"x_min":0,"x_max":454,"ha":454,"o":"m 217 -14 q 132 -14 82 36 q 33 86 33 178 q 33 239 52 295 q 70 351 104 394 q 138 438 189 465 q 241 493 304 493 q 374 493 410 463 q 446 434 446 389 q 446 355 430 330 q 415 304 383 304 q 356 304 343 317 q 330 331 330 347 q 330 362 341 389 q 352 417 358 433 q 353 446 334 452 q 315 458 295 458 q 229 458 181 381 q 133 304 133 191 q 133 122 164 81 q 195 41 248 41 q 295 41 332 66 q 369 91 402 138 l 430 117 q 396 64 339 25 q 281 -14 217 -14 z"},"!":{"x_min":0,"x_max":331,"ha":331,"o":"m 326 662 q 326 653 323 639 q 320 625 312 602 q 289 532 256 438 q 222 343 179 211 l 141 211 q 158 324 176 471 q 193 619 199 645 q 205 675 227 693 q 250 711 276 711 q 300 711 313 697 q 326 684 326 662 z m 200 56 q 200 29 180 10 q 161 -10 133 -10 q 106 -10 86 10 q 66 29 66 56 q 66 83 86 103 q 106 123 133 123 q 161 123 180 103 q 200 83 200 56 z"},"/":{"x_min":0,"x_max":469,"ha":469,"o":"m 515 744 l 11 -207 l -57 -207 l 447 744 z"},"[":{"x_min":0,"x_max":375,"ha":375,"o":"m 453 742 l 443 700 l 270 700 l 83 -109 l 257 -109 l 247 -151 l -13 -151 l 193 742 z"},"6":{"x_min":0,"x_max":566,"ha":566,"o":"m 534 267 q 534 210 511 158 q 489 106 452 68 q 413 28 361 6 q 310 -16 253 -16 q 161 -16 106 43 q 52 101 52 207 q 52 302 88 387 q 125 473 189 541 q 251 607 339 652 q 427 697 524 710 l 524 664 l 480 659 q 374 631 296 555 q 218 479 182 375 q 230 412 277 427 q 323 443 369 443 q 438 443 486 393 q 534 343 534 267 z m 430 253 q 430 315 400 352 q 370 389 318 389 q 276 389 240 372 q 205 355 173 327 q 168 313 161 274 q 153 235 153 188 q 153 106 181 63 q 210 21 263 21 q 331 21 380 89 q 430 157 430 253 z"},"r":{"x_min":0,"x_max":461,"ha":461,"o":"m 466 413 q 466 399 462 383 q 458 367 451 356 q 442 343 431 336 q 421 329 401 329 q 375 329 362 342 q 349 355 349 371 q 349 386 356 405 q 363 424 371 442 q 365 442 352 439 q 338 436 319 427 q 300 417 276 399 q 252 380 225 350 l 146 0 l 55 0 l 126 316 q 129 328 134 352 q 138 375 138 386 q 138 414 129 423 q 120 432 92 432 q 81 432 64 428 q 48 425 39 422 l 46 454 q 84 471 113 479 q 143 487 164 487 q 203 487 219 466 q 236 445 236 402 l 239 402 q 297 453 327 473 q 357 493 390 493 q 405 493 420 489 q 435 485 445 476 q 456 465 461 452 q 466 438 466 413 z"},"2":{"x_min":0,"x_max":559,"ha":559,"o":"m 525 387 q 525 333 499 296 q 473 259 427 233 q 393 214 348 199 q 303 184 249 168 q 202 154 159 134 q 116 114 88 85 l 477 85 l 457 0 l 0 0 l 16 66 q 30 86 51 104 q 71 123 99 141 q 124 156 154 170 q 184 185 219 199 q 264 216 298 233 q 332 250 355 268 q 391 294 406 325 q 421 356 421 397 q 421 446 395 474 q 368 502 326 502 q 286 502 257 488 q 229 474 218 458 q 218 452 219 441 q 219 430 219 415 q 219 371 202 349 q 185 328 147 328 q 121 328 110 340 q 100 353 100 371 q 100 399 117 429 q 135 458 168 484 q 200 509 244 524 q 289 540 340 540 q 423 540 474 499 q 525 458 525 387 z"},"{":{"x_min":0,"x_max":430,"ha":430,"o":"m 336 714 q 366 732 409 741 q 452 750 510 750 l 501 713 q 479 712 455 708 q 430 704 411 694 q 389 683 374 661 q 359 639 351 604 l 326 495 q 313 442 293 408 q 272 375 244 354 q 217 334 185 323 q 152 312 113 305 l 109 290 q 137 285 162 276 q 188 267 204 254 q 222 239 232 219 q 242 199 242 164 q 242 141 235 108 q 229 76 222 51 q 215 23 208 -6 q 202 -36 202 -54 q 202 -78 212 -91 q 221 -105 236 -112 q 250 -119 269 -122 q 287 -125 309 -126 l 299 -163 q 201 -163 158 -134 q 116 -104 116 -44 q 116 -19 123 10 q 130 39 139 72 q 146 99 155 131 q 163 164 163 181 q 163 222 134 243 q 105 264 35 268 l 50 329 q 83 332 115 339 q 147 346 168 360 q 191 375 207 397 q 222 419 230 455 q 236 484 241 517 q 245 551 249 575 q 258 628 281 661 q 303 694 336 714 z"},"9":{"x_min":0,"x_max":566,"ha":566,"o":"m 541 325 q 541 229 505 142 q 469 55 406 -12 q 343 -79 254 -124 q 165 -169 63 -181 l 63 -133 l 109 -129 q 224 -97 298 -28 q 372 41 409 146 q 359 109 314 95 q 269 82 222 82 q 153 82 106 132 q 59 181 59 259 q 59 313 81 363 q 102 414 140 454 q 177 492 229 516 q 282 540 339 540 q 430 540 485 482 q 541 425 541 325 z m 440 345 q 440 418 410 461 q 379 504 331 504 q 288 504 256 479 q 225 455 203 418 q 182 383 173 341 q 163 299 163 267 q 163 208 194 172 q 224 136 274 136 q 312 136 349 150 q 386 164 419 195 q 425 212 432 249 q 440 285 440 345 z"}," ":{"x_min":0,"x_max":241,"ha":241,"o":""},"I":{"x_min":0,"x_max":390,"ha":390,"o":"m 450 693 l 443 661 q 428 660 403 656 q 379 652 367 649 q 347 643 338 629 q 329 616 325 601 l 208 94 q 207 91 207 86 q 206 82 206 79 q 206 67 211 60 q 216 52 229 46 q 236 42 261 38 q 286 33 298 32 l 291 0 l -21 0 l -14 32 q 0 33 25 35 q 50 37 61 41 q 80 48 90 60 q 100 72 103 89 l 220 596 q 221 600 221 604 q 222 609 222 613 q 222 623 218 630 q 213 638 200 644 q 187 649 164 655 q 142 660 131 661 l 138 693 z"},"H":{"x_min":0,"x_max":815,"ha":815,"o":"m 865 693 l 857 661 q 844 660 823 656 q 803 652 792 649 q 773 643 765 629 q 756 615 752 600 l 636 95 q 635 91 635 86 q 634 82 634 78 q 634 68 639 60 q 643 52 653 46 q 660 42 679 37 q 699 33 712 32 l 705 0 l 417 0 l 425 32 q 437 33 459 35 q 482 37 491 41 q 508 47 518 60 q 527 72 531 90 l 588 340 l 263 340 l 207 95 q 206 91 205 87 q 205 83 205 79 q 205 69 209 60 q 214 51 223 46 q 230 42 250 37 q 269 33 283 32 l 275 0 l -12 0 l -5 32 q 7 33 30 35 q 52 37 62 41 q 79 47 88 60 q 97 72 101 90 l 218 595 q 219 599 219 603 q 220 607 220 611 q 220 622 216 630 q 211 638 201 644 q 189 650 171 655 q 154 660 140 661 l 147 693 l 435 693 l 428 661 q 414 660 394 656 q 373 652 362 649 q 343 643 335 629 q 327 615 323 600 l 273 381 l 599 381 l 647 595 q 648 599 649 603 q 649 607 649 611 q 649 622 645 630 q 641 638 630 644 q 619 650 601 655 q 583 660 570 661 l 577 693 z"},"4":{"x_min":0,"x_max":565,"ha":565,"o":"m 538 105 l 523 44 l 421 44 l 370 -178 l 276 -178 l 327 44 l 13 44 l 33 124 l 466 537 l 535 537 l 435 105 z m 416 428 l 76 105 l 341 105 z"},"~":{"x_min":0,"x_max":643,"ha":643,"o":"m 592 349 q 585 331 569 303 q 553 276 534 257 q 510 233 483 219 q 457 205 425 205 q 390 205 361 216 q 332 226 307 238 q 282 251 258 261 q 234 271 209 271 q 176 271 154 247 q 131 222 114 186 l 76 201 q 82 219 98 246 q 115 272 134 292 q 153 313 183 329 q 212 344 242 344 q 278 344 307 334 q 336 323 361 311 q 388 298 409 288 q 431 278 458 278 q 493 278 515 303 q 538 329 554 364 z"},"D":{"x_min":0,"x_max":749,"ha":749,"o":"m 740 426 q 740 327 701 246 q 663 165 600 112 q 535 57 455 28 q 375 0 288 0 l -14 0 l -7 32 q 6 32 29 35 q 52 37 62 41 q 80 48 89 60 q 98 73 101 90 l 216 588 q 218 594 219 601 q 220 608 220 613 q 220 624 217 632 q 213 640 202 645 q 189 651 170 655 q 152 659 142 661 l 149 693 l 443 693 q 487 693 539 680 q 590 668 635 638 q 683 606 711 553 q 740 500 740 426 z m 625 425 q 625 535 566 595 q 508 656 411 656 q 391 656 369 655 q 348 654 335 654 l 211 116 q 210 109 209 103 q 208 97 208 91 q 208 62 232 50 q 257 38 312 38 q 385 38 445 71 q 505 104 544 159 q 585 216 605 284 q 625 351 625 425 z"},"^":{"x_min":0,"x_max":643,"ha":643,"o":"m 574 389 l 503 389 l 346 645 l 188 389 l 117 389 l 318 711 l 374 711 z"},"0":{"x_min":0,"x_max":614,"ha":614,"o":"m 588 340 q 588 271 563 206 q 538 141 495 93 q 449 42 390 13 q 332 -16 256 -16 q 159 -16 104 41 q 48 97 48 181 q 48 255 74 320 q 100 384 145 434 q 189 483 251 511 q 312 540 380 540 q 480 540 534 482 q 588 424 588 340 z m 484 362 q 484 432 455 467 q 425 503 374 503 q 320 503 277 470 q 234 437 205 378 q 179 327 166 268 q 152 208 152 160 q 152 95 181 58 q 209 21 264 21 q 315 21 357 51 q 400 81 432 146 q 459 200 472 258 q 484 316 484 362 z"},"F":{"x_min":0,"x_max":599,"ha":599,"o":"m 686 693 l 646 520 l 609 520 q 607 572 587 610 q 566 648 537 653 q 522 655 502 656 q 481 657 455 657 l 336 657 l 271 375 l 351 375 q 379 375 403 381 q 426 387 448 407 q 459 417 473 440 q 487 463 496 489 l 533 489 l 470 217 l 433 217 q 434 223 434 230 q 435 238 435 248 q 435 261 433 279 q 431 296 426 305 q 413 325 392 332 q 371 338 342 338 l 262 338 l 207 95 q 206 91 205 87 q 205 83 205 79 q 205 68 209 60 q 213 52 224 46 q 232 42 255 38 q 278 33 292 32 l 285 0 l -17 0 l -9 32 q 6 33 30 35 q 54 38 62 41 q 80 48 88 60 q 97 73 101 90 l 218 595 q 219 600 219 604 q 220 609 220 614 q 220 624 217 631 q 213 638 201 644 q 190 649 169 654 q 148 659 134 661 l 142 693 z"},"`":{"x_min":0,"x_max":500,"ha":500,"o":"m 449 558 l 430 542 q 363 598 338 617 q 314 636 289 658 q 274 671 267 682 q 260 692 260 708 q 260 725 271 738 q 283 751 303 751 q 322 751 333 741 q 345 731 358 708 q 372 686 396 645 q 421 604 449 558 z"},"k":{"x_min":0,"x_max":528,"ha":528,"o":"m 523 437 q 523 416 506 397 q 489 379 464 379 q 448 379 433 383 q 417 388 398 396 q 372 381 343 359 q 314 337 281 305 q 309 233 328 187 q 347 141 361 111 q 378 75 400 59 q 421 44 446 44 q 458 44 479 48 q 499 51 510 55 l 503 23 q 458 4 432 -2 q 406 -8 379 -8 q 348 -8 326 9 q 304 26 283 72 q 263 115 248 157 q 232 200 217 237 l 160 188 l 118 0 l 27 0 l 172 628 q 175 644 177 649 q 178 655 178 664 q 178 682 172 691 q 166 701 155 706 q 145 710 129 711 q 114 713 98 715 l 104 745 l 286 756 l 291 749 l 171 240 l 173 240 q 229 300 274 344 q 319 387 368 433 q 403 465 424 477 q 444 489 468 489 q 493 489 508 475 q 523 461 523 437 z"},"u":{"x_min":0,"x_max":575,"ha":575,"o":"m 345 68 l 342 68 q 320 50 299 35 q 279 20 259 10 q 235 -2 216 -7 q 197 -12 167 -12 q 120 -12 94 15 q 68 42 68 86 q 68 98 70 114 q 72 130 79 162 l 117 316 q 122 338 125 354 q 128 371 128 386 q 128 414 119 423 q 110 432 83 432 q 72 432 55 428 q 39 424 29 421 l 37 453 q 75 470 104 479 q 133 487 150 487 q 189 487 208 469 q 226 451 226 417 q 226 408 224 393 q 222 378 218 363 l 175 182 q 170 162 167 144 q 164 126 164 117 q 164 84 178 65 q 192 46 223 46 q 254 46 287 62 q 320 79 353 112 l 438 479 l 523 485 l 529 478 l 457 164 q 452 144 448 123 q 444 103 444 95 q 444 67 456 57 q 468 47 496 47 q 505 47 522 50 q 539 53 548 56 l 541 25 q 500 8 473 0 q 446 -8 423 -8 q 384 -8 365 15 q 345 38 345 68 z"},"]":{"x_min":0,"x_max":375,"ha":375,"o":"m 404 742 l 198 -151 l -62 -151 l -53 -109 l 121 -109 l 307 700 l 134 700 l 144 742 z"},"U":{"x_min":0,"x_max":756,"ha":756,"o":"m 322 -17 q 219 -17 161 27 q 104 70 104 143 q 104 153 105 162 q 106 171 108 183 l 204 595 q 205 599 205 603 q 206 607 206 611 q 206 621 201 630 q 197 638 187 645 q 176 651 158 655 q 140 659 128 661 l 136 693 l 424 693 l 416 661 q 402 660 381 656 q 359 652 349 649 q 330 643 321 629 q 313 615 309 600 l 220 214 q 217 202 215 186 q 213 170 213 156 q 213 130 218 112 q 224 93 242 74 q 257 57 284 47 q 311 36 352 36 q 408 36 447 53 q 487 71 513 97 q 538 122 554 152 q 570 182 576 210 q 594 280 609 347 q 624 414 641 493 q 649 532 653 556 q 656 581 656 596 q 656 610 653 619 q 650 627 643 634 q 628 646 600 653 q 572 659 557 661 l 565 693 l 848 693 l 840 661 q 827 660 799 655 q 771 649 753 639 q 733 627 718 587 q 702 547 692 504 q 677 434 661 363 q 646 292 625 209 q 608 141 573 97 q 539 53 496 28 q 455 4 410 -6 q 366 -17 322 -17 z"},"o":{"x_min":0,"x_max":537,"ha":537,"o":"m 504 301 q 504 243 485 186 q 465 128 428 84 q 391 40 338 12 q 285 -15 215 -15 q 134 -15 83 38 q 33 90 33 178 q 33 243 54 299 q 76 355 112 398 q 148 440 202 467 q 256 493 319 493 q 406 493 455 440 q 504 387 504 301 z m 405 319 q 405 389 380 423 q 355 458 309 458 q 269 458 233 433 q 197 408 171 352 q 151 310 142 258 q 132 206 132 162 q 132 92 156 56 q 181 20 229 20 q 273 20 307 47 q 340 75 361 117 q 382 158 394 211 q 405 264 405 319 z"},"N":{"x_min":0,"x_max":767,"ha":767,"o":"m 859 693 l 851 661 q 838 660 808 653 q 777 646 764 638 q 743 625 729 591 q 716 557 703 503 l 585 -7 l 542 -7 l 257 578 l 170 200 q 165 175 161 149 q 157 123 157 107 q 157 90 160 79 q 164 69 169 62 q 178 52 211 42 q 244 33 255 32 l 248 0 l -37 0 l -29 32 q -13 34 18 42 q 49 50 60 57 q 79 70 93 100 q 106 129 121 195 l 199 531 q 202 547 204 558 q 205 570 205 580 q 205 591 202 602 q 200 612 190 624 q 173 644 148 651 q 124 659 104 661 l 112 693 l 311 693 l 574 151 l 654 497 q 660 522 664 547 q 667 572 667 589 q 667 605 664 616 q 661 627 655 633 q 643 643 615 651 q 587 658 569 661 l 577 693 z"},"+":{"x_min":0,"x_max":643,"ha":643,"o":"m 585 243 l 365 243 l 365 22 l 303 22 l 303 243 l 83 243 l 83 304 l 303 304 l 303 524 l 365 524 l 365 304 l 585 304 z"},"G":{"x_min":0,"x_max":725,"ha":725,"o":"m 326 -16 q 267 -16 217 2 q 167 21 129 57 q 91 93 70 145 q 49 197 49 264 q 49 358 82 439 q 115 520 172 580 q 228 640 305 675 q 381 709 466 709 q 534 709 582 694 q 630 678 657 660 l 685 693 l 724 693 l 672 451 l 632 451 q 631 491 625 530 q 620 569 601 601 q 582 632 549 651 q 516 669 456 669 q 396 669 343 638 q 289 607 249 551 q 209 497 186 421 q 164 345 164 258 q 164 149 215 87 q 266 24 356 24 q 399 24 431 37 q 463 50 481 65 q 488 85 494 108 q 500 130 508 162 l 517 204 q 518 209 519 217 q 521 224 521 230 q 521 243 517 250 q 514 258 502 264 q 488 271 461 275 q 434 278 419 279 l 426 312 l 730 312 l 723 279 q 710 278 690 275 q 670 271 656 266 q 639 258 630 245 q 622 231 617 213 l 604 157 q 593 111 589 88 q 584 65 581 44 q 549 31 524 21 q 499 12 461 2 q 427 -6 395 -11 q 364 -16 326 -16 z"},"q":{"x_min":0,"x_max":555,"ha":555,"o":"m 344 68 l 340 68 q 328 58 315 45 q 302 33 279 18 q 259 5 236 -4 q 212 -14 186 -14 q 115 -14 75 37 q 34 88 34 176 q 34 236 57 293 q 80 351 119 396 q 157 439 209 466 q 261 493 316 493 q 351 493 383 483 q 416 474 434 462 l 521 485 l 527 478 l 395 -104 q 392 -117 390 -127 q 388 -138 388 -145 q 388 -158 397 -166 q 406 -174 418 -177 q 429 -181 444 -183 q 458 -185 469 -186 l 462 -217 l 193 -217 l 200 -186 q 216 -185 232 -184 q 248 -182 260 -179 q 275 -174 284 -162 q 293 -150 297 -133 z m 413 373 q 413 389 409 404 q 405 418 395 431 q 384 443 367 451 q 350 458 324 458 q 288 458 254 435 q 220 411 193 372 q 167 333 151 281 q 135 229 135 175 q 135 146 138 122 q 142 98 152 80 q 161 62 178 51 q 195 41 223 41 q 256 41 288 61 q 319 81 354 115 z"},"d":{"x_min":0,"x_max":575,"ha":575,"o":"m 344 67 l 341 67 q 330 58 313 43 q 296 28 277 17 q 254 2 234 -6 q 214 -14 186 -14 q 115 -14 74 37 q 34 88 34 176 q 34 238 56 295 q 78 352 115 396 q 152 439 203 466 q 255 493 311 493 q 345 493 378 484 q 411 475 433 462 l 471 628 q 474 642 475 649 q 476 656 476 665 q 476 683 469 692 q 462 701 449 706 q 438 710 417 711 q 396 713 380 715 l 387 745 l 584 756 l 589 749 l 454 163 q 450 147 446 126 q 442 105 442 95 q 442 67 454 57 q 465 47 493 47 q 502 47 520 50 q 537 53 546 56 l 539 25 q 498 6 471 -1 q 444 -8 421 -8 q 386 -8 365 10 q 344 28 344 67 z m 413 378 q 412 392 406 406 q 399 419 390 430 q 378 442 361 450 q 343 458 318 458 q 281 458 247 435 q 214 411 188 372 q 164 334 149 281 q 135 229 135 175 q 135 146 138 123 q 142 100 151 80 q 161 62 178 52 q 195 41 223 41 q 250 41 281 57 q 313 73 352 113 z"},"1":{"x_min":0,"x_max":430,"ha":430,"o":"m 350 540 q 339 503 327 456 q 315 409 311 389 l 243 97 q 242 93 242 89 q 241 84 241 81 q 241 68 247 59 q 253 51 261 47 q 271 42 298 38 q 326 33 342 32 l 334 0 l 5 0 l 13 32 q 28 33 60 36 q 91 40 104 43 q 117 47 130 60 q 143 74 146 92 l 227 439 l 105 439 l 114 478 l 141 478 q 191 478 236 495 q 280 513 309 540 z"},"5":{"x_min":0,"x_max":528,"ha":528,"o":"m 544 524 l 523 438 l 213 438 l 146 230 q 172 246 208 261 q 245 275 290 275 q 323 275 354 267 q 384 259 413 238 q 440 219 457 188 q 474 157 474 111 q 474 51 448 -3 q 423 -56 379 -95 q 335 -135 281 -156 q 228 -178 167 -178 q 89 -178 38 -144 q -13 -110 -13 -61 q -13 -29 6 -6 q 25 17 53 17 q 82 17 94 4 q 106 -10 106 -25 q 106 -44 95 -68 q 83 -91 78 -103 q 89 -118 113 -129 q 136 -141 178 -141 q 251 -141 311 -71 q 370 -2 370 102 q 370 155 339 189 q 308 223 255 223 q 206 223 169 204 q 133 186 107 159 l 75 171 l 191 524 z"}}}
